<?xml version="1.0" standalone="no"?>
<!DOCTYPE svg PUBLIC "-//W3C//DTD SVG 20010904//EN"
 "http://www.w3.org/TR/2001/REC-SVG-20010904/DTD/svg10.dtd">
<svg version="1.0" xmlns="http://www.w3.org/2000/svg"
 width="235.000000pt" height="235.000000pt" viewBox="0 0 235.000000 235.000000"
 preserveAspectRatio="xMidYMid meet">
<metadata>
Created by potrace 1.14, written by Peter Selinger 2001-2017
</metadata>
<g transform="translate(0.000000,235.000000) scale(0.100000,-0.100000)"
fill="#000000" stroke="none">
<path d="M1005 2335 c-285 -37 -513 -159 -688 -368 -106 -126 -197 -354 -225
-562 -9 -68 -8 -357 2 -424 59 -404 308 -723 657 -844 117 -41 164 -51 282
-63 135 -13 293 -6 397 17 25 6 53 12 63 14 46 10 149 51 220 88 294 155 492
460 533 823 10 85 10 309 0 384 -51 386 -246 674 -563 834 -182 91 -446 130
-678 101z m327 -35 c395 -61 646 -378 695 -876 8 -92 9 -330 1 -426 -24 -260
-119 -509 -253 -657 -48 -53 -145 -126 -215 -161 -60 -30 -175 -64 -255 -75
-56 -8 -248 -8 -273 -1 -10 3 -35 7 -56 11 -176 26 -374 156 -481 316 -75 112
-144 290 -161 417 -3 26 -8 50 -10 53 -17 29 -25 390 -11 529 18 177 74 366
148 497 63 111 189 236 294 290 89 46 198 80 290 89 33 4 61 7 63 9 6 5 159
-5 224 -15z"/>
<path d="M1020 2084 c-197 -33 -319 -92 -435 -209 -84 -83 -145 -183 -186
-302 -19 -57 -22 -69 -39 -168 -17 -94 -6 -331 19 -425 73 -273 240 -460 488
-544 230 -78 512 -58 716 52 150 80 286 245 343 413 60 176 70 427 25 601 -95
365 -373 582 -761 592 -52 1 -129 -3 -170 -10z m360 -44 c69 -20 163 -76 216
-127 111 -108 178 -262 211 -488 15 -105 5 -390 -17 -465 -6 -19 -13 -48 -16
-65 -10 -54 -56 -159 -101 -227 -116 -176 -298 -262 -538 -254 -174 7 -295 56
-405 166 -142 142 -211 354 -214 660 -4 369 126 655 349 768 138 70 347 83
515 32z"/>
<path d="M2280 1780 c20 -13 40 -13 40 0 0 6 -12 10 -27 10 -22 0 -25 -2 -13
-10z"/>
<path d="M30 334 c0 -95 2 -104 19 -104 50 0 92 74 77 135 -8 31 -40 62 -72
68 l-24 4 0 -103z"/>
<path d="M2285 310 c-3 -5 3 -10 14 -10 12 0 21 5 21 10 0 6 -6 10 -14 10 -8
0 -18 -4 -21 -10z"/>
</g>
</svg>
