<?xml version="1.0" encoding="UTF-8"?>
<svg id="Layer_2" data-name="Layer 2" xmlns="http://www.w3.org/2000/svg" xmlns:xlink="http://www.w3.org/1999/xlink" viewBox="0 0 324.14 279.3">
  <defs>
    <style>
      .cls-1 {
        fill: url(#linear-gradient-2);
      }

      .cls-2 {
        fill: url(#linear-gradient);
      }
    </style>
    <linearGradient id="linear-gradient" x1="108.09" y1="94.25" x2="216.05" y2="94.25" gradientUnits="userSpaceOnUse">
      <stop offset="0" stop-color="#7f0023"/>
      <stop offset=".97" stop-color="#260020"/>
    </linearGradient>
    <linearGradient id="linear-gradient-2" x1="0" y1="248.26" x2="324.14" y2="248.26" xlink:href="#linear-gradient"/>
  </defs>
  <g id="Layer_1-2" data-name="Layer 1">
    <g id="Layer_2-2" data-name="Layer 2">
      <g>
        <path class="cls-2" d="M137.52,57.94c1.32-.95,2.92-1.4,4.52-1.53,1.82-.15,3.67,.1,5.43,.57s3.55,1.22,5.15,2.18c.56,.34,1.11,.71,1.62,1.11,5.66,4.37,6.84,11.57,5.29,18.26-.38,1.69-1.02,3.3-1.13,4.9-.29,2.59,1.95,3.33,4.53,4,.21,.05,.85,.18,.85,.18,0,0-.64,.09-.86,.11-4.76,.39-7.27-1.98-6.36-6.89,.75-3.63,1.05-7.3,.42-10.92-.29-1.7-.97-3.32-1.93-4.75-.96-1.44-2.2-2.69-3.58-3.73-1.4-1.05-2.96-1.9-4.6-2.52-2.11-.8-5.42-1.67-9.93-.51,.18-.16,.37-.32,.57-.46Zm49.06,1.87c-5.47-6.42-16.46-2.07-17.66,5.8,1.37-1.24,2.6-2.39,3.95-3.31,4.06-3.02,8.77-3.75,13.72-2.49h0Zm-13.23,14.91c4.24,3.23,11.51,1.04,13.23-4.02-4.16,1.69-8.82,3.12-13.23,4.02h0Zm-35.78-3.78c1.83,5.01,9.13,7.09,13.31,3.76-4.42-.82-9.11-2.14-13.31-3.76h0Zm17.16,21.48c3.5,4.84,11.82,4.6,15.4-.07-5.62,.74-9.96,1.03-15.4,.07h0ZM200.23,15.81C190.47,6.03,176.97,0,162.07,0s-28.4,6.03-38.16,15.81c-9.78,9.76-15.81,23.27-15.81,38.17V188.51h31.58c9.62,0,17.41-7.79,17.41-17.41v-49.24c0-5.12-1.65-10.15-4.95-14.07-1.91-2.29-4.32-4.35-7.15-6.24-5.24-3.5-10.23-8.28-13.51-13.64-7.8-12.72-4.4-26.37-1.57-40.15,21.4,3.44,42.62,1.19,62.13-9.95l.3,1.19c1.2,5.31,2.47,10.43,3.52,15.58,4.19,20.42,.93,37.82-19.09,49.02-3.74,2.1-6.4,5.12-8.02,8.72-1.22,2.67-1.7,5.61-1.7,8.56v5.95l-.23,44.15c-.06,7.24,4.32,13.48,10.59,16.14l2.12-67.34,2.18,68.54c.83,.13,1.67,.19,2.52,.19h5.34l2.18-68.73,2.18,68.73h4.71c1.39,0,2.74-.16,4.05-.48l2.16-68.25,2.09,66.63c5.43-2.95,9.11-8.69,9.11-15.3V53.98c0-14.9-6.03-28.4-15.81-38.17Z"/>
        <path class="cls-1" d="M53.8,250.24c0,16.64-12.76,29.06-28.45,29.06-5.61,0-5.26-.86-11.3-.86-2.59,0-5.52,.17-6.98,.86H0v-1.21H1.12c1.38,0,2.93-.43,2.93-1.21v-51.91c0-1.03-1.38-1.29-2.93-1.29H0v-1.29H7.07c.6,.34,1.81,.43,3.45,.43,6.38,0,9.48-.95,15.87-.95,15.17,0,27.42,13.02,27.42,28.37Zm-42.85-26.13v53.11c.6-.09,1.9-.09,3.36-.09,5.78,0,6.98,.86,11.55,.86,3.45,0,6.98-.69,11.3-2.76,7.76-3.71,10.52-12.07,10.52-20.09,0-21.9-18.71-31.21-27.33-31.3-8.45,0-7.5,.26-9.4,.26Zm87.18,34.49c0,11.47-9.31,20.69-20.69,20.69s-20.69-9.23-20.69-20.69,9.23-20.69,20.69-20.69,20.69,9.31,20.69,20.69Zm-15.43,18.02c6.98,0,9.4-7.5,9.4-13.62,0-15.61-13.36-22.42-19.83-22.42-7.67,0-9.57,8.02-9.57,13.62,0,16.12,14.4,22.42,20,22.42Zm30.87-35.78v11.81c1.64-3.02,3.28-5.86,4.83-8.19,1.29-1.9,2.59-3.45,3.79-4.57,2.33-1.98,3.28-1.98,4.05-1.98,2.5,0,4.57,2.07,4.57,4.57s-2.07,4.57-4.57,4.57c-6.21,.35-7.07-1.38-12.59,8.02-.09,.26-.09,.34-.09,.95v23.28h-6.9v-35.27c0-1.72-.78-2.41-1.81-2.41-.69,0-1.55,.26-2.41,.78l-2.33,1.21v-1.47l6.55-3.45c.86-.52,2.07-.78,3.19-.78,1.9,0,3.71,.78,3.71,2.93Zm59.24,17.76c0,11.47-9.31,20.69-20.69,20.69s-20.69-9.23-20.69-20.69,9.23-20.69,20.69-20.69,20.69,9.31,20.69,20.69Zm-15.43,18.02c6.98,0,9.4-7.5,9.4-13.62,0-15.61-13.36-22.42-19.83-22.42-7.67,0-9.57,8.02-9.57,13.62,0,16.12,14.4,22.42,20,22.42Zm28.46-50.7v9.4c0,2.59,1.38,2.59,5.61,2.59v1.29c-4.14,0-5.61,.09-5.61,3.28v33.37c0,1.29,2.41,1.81,3.45,2.16v1.29h-6.04c-2.59,0-4.31-1.72-4.31-4.31v-32.51c0-3.19-.78-3.28-7.5-3.28v-1.29c8.54,0,10.09-6.38,10.52-11.98h3.88Zm19.75-5.69v29.49l20.69-11.04c.86-.52,2.07-.78,3.28-.78,1.9,0,3.62,.78,3.62,2.93v35.01c0,1.29,2.41,1.81,3.45,2.16v1.29h-6.04c-2.59,0-4.31-1.72-4.31-4.31v-30.95c0-1.72-.78-2.41-1.81-2.41-.69,0-1.55,.26-2.41,.78l-16.47,8.8v28.11h-6.9v-55.96c0-1.72-.78-2.33-1.9-2.33-.69,0-1.47,.26-2.33,.69l-2.33,1.29v-1.47l6.55-3.54c.86-.43,2.07-.78,3.19-.78,1.9,0,3.71,.86,3.71,3.02Zm71.66,50.1c-3.71,5.43-9.92,8.97-17.07,8.97-11.47,0-20.69-9.4-20.69-20.69s9.57-20.69,21.04-20.69c13.45,0,18.19,8.62,18.19,10.78,0,1.9-1.55,3.79-3.19,4.66l-26.13,13.97c3.71,4.91,9.74,9.31,16.12,9.31,5.43,0,9.66-5.43,10.87-7.5l.86,1.21Zm-31.73-16.04c0,3.62,.95,8.97,3.19,11.9l21.38-11.38c1.21-.6,1.98-1.98,1.98-3.36,0-3.79-7.33-11.04-16.21-11.04-7.42,0-10.35,6.64-10.35,13.88Zm75.19,4.31v17.24c0,1.29,2.41,1.81,3.45,2.16v1.29h-6.04c-2.59,0-4.31-1.72-4.31-4.31v-1.12c-3.79,3.36-8.71,5.43-14.14,5.43-13.54,0-18.19-8.62-18.19-10.78,0-1.9,1.55-3.79,3.19-4.66l26.13-13.88c-4.14-7.76-11.21-9.57-15.35-9.57-3.71,0-4.66,1.38-4.66,3.71,0,1.81,.6,3.88,.6,5.17,0,2.59-2.07,4.57-4.57,4.57s-4.57-1.98-4.57-4.57c0-3.28,7.07-11.38,17.76-11.38,11.38,0,20.69,9.23,20.69,20.69Zm-30.61,3.88c-1.21,.6-1.98,1.98-1.98,3.36,0,4.31,8.02,10.95,16.04,10.95,8.45,0,10.52-7.5,10.52-13.8,0-4.66-1.21-9.4-3.19-11.98l-21.38,11.47Z"/>
      </g>
    </g>
  </g>
</svg>